<?xml version="1.0" encoding="utf-8"?>
<!-- Generator: Adobe Illustrator 22.1.0, SVG Export Plug-In . SVG Version: 6.00 Build 0)  -->
<svg version="1.1" id="Слой_1" xmlns="http://www.w3.org/2000/svg" xmlns:xlink="http://www.w3.org/1999/xlink" x="0px" y="0px"
	 width="44px" height="43px" viewBox="0 0 44 43" style="enable-background:new 0 0 44 43;" xml:space="preserve">
<style type="text/css">
	.st0{fill:#FFFFFF;}
</style>
<path class="st0" d="M43,17.2l-4.1,24.3C38.7,42.4,38,43,37.1,43H6.5c-0.9,0-1.6-0.6-1.7-1.5L0.6,17.2c-0.1-0.5,0.1-1.9,1.7-2.1h4.7
	C7.2,7,13.7,0.5,21.8,0.5c8.1,0,14.7,6.5,14.8,14.6h4.7C42.9,15.2,43.1,16.7,43,17.2z M21.8,4c-6.1,0-11.1,5-11.2,11.1h22.5
	C33,9,28,4,21.8,4z M4.5,18.7L8,39.5h27.6l3.5-20.8H4.5z M29.2,35.2H14.5c-1,0-1.8-0.8-1.8-1.8c0-1,0.8-1.8,1.8-1.8h14.7
	c1,0,1.8,0.8,1.8,1.8C31,34.5,30.2,35.2,29.2,35.2z M29.2,26.4H14.5c-1,0-1.8-0.8-1.8-1.8c0-1,0.8-1.8,1.8-1.8h14.7
	c1,0,1.8,0.8,1.8,1.8C31,25.6,30.2,26.4,29.2,26.4z"/>
</svg>
