<svg 
 xmlns="http://www.w3.org/2000/svg"
 xmlns:xlink="http://www.w3.org/1999/xlink"
 width="29px" height="29px">
<path fill-rule="evenodd"  fill="rgb(183, 184, 186)"
 d="M14.499,0.003 C6.506,0.003 0.003,6.506 0.003,14.499 C0.003,22.492 6.506,28.995 14.499,28.995 C22.492,28.995 28.995,22.492 28.995,14.499 C28.995,6.506 22.492,0.003 14.499,0.003 ZM18.104,15.009 L15.746,15.009 C15.746,18.777 15.746,23.416 15.746,23.416 L12.251,23.416 C12.251,23.416 12.251,18.822 12.251,15.009 L10.590,15.009 L10.590,12.038 L12.251,12.038 L12.251,10.117 C12.251,8.741 12.905,6.590 15.778,6.590 L18.366,6.600 L18.366,9.484 C18.366,9.484 16.793,9.484 16.487,9.484 C16.181,9.484 15.746,9.637 15.746,10.293 L15.746,12.039 L18.409,12.039 L18.104,15.009 Z"/>
</svg>