<svg xmlns="http://www.w3.org/2000/svg" width="34.03" height="34" viewBox="0 0 34.03 34">
  <metadata><?xpacket begin="﻿" id="W5M0MpCehiHzreSzNTczkc9d"?>
<x:xmpmeta xmlns:x="adobe:ns:meta/" x:xmptk="Adobe XMP Core 5.6-c142 79.160924, 2017/07/13-01:06:39        ">
   <rdf:RDF xmlns:rdf="http://www.w3.org/1999/02/22-rdf-syntax-ns#">
      <rdf:Description rdf:about=""/>
   </rdf:RDF>
</x:xmpmeta>
                                                                                                    
                                                                                                    
                                                                                                    
                                                                                                    
                                                                                                    
                                                                                                    
                                                                                                    
                                                                                                    
                                                                                                    
                                                                                                    
                                                                                                    
                                                                                                    
                                                                                                    
                                                                                                    
                                                                                                    
                                                                                                    
                                                                                                    
                                                                                                    
                                                                                                    
                                                                                                    
                           
<?xpacket end="w"?></metadata>
<defs>
    <style>
      .cls-1 {
        fill: #fff;
        fill-rule: evenodd;
      }
    </style>
  </defs>
  <path id="icon" class="cls-1" d="M1183.67,634.757l-6.77-6.767,4.83-2.788a1.141,1.141,0,0,0-.15-2.041l-21.53-8.586a1.134,1.134,0,0,0-1.47,1.477l8.58,21.528a1.136,1.136,0,0,0,2.04.147l2.79-4.827,6.77,6.767a1.126,1.126,0,0,0,.8.333,1.167,1.167,0,0,0,.81-0.333l3.3-3.3A1.144,1.144,0,0,0,1183.67,634.757Zm-4.11,2.5-7.01-7.01a1.118,1.118,0,0,0-.8-0.333,1.258,1.258,0,0,0-.15.009,1.151,1.151,0,0,0-.84.559l-2.35,4.08-6.74-16.892,16.89,6.737-4.08,2.357a1.139,1.139,0,0,0-.56.837,1.123,1.123,0,0,0,.32.952l7.01,7.01Zm-24.57-27.872a1.138,1.138,0,1,0-1.61,1.608l2.53,2.526a1.123,1.123,0,0,0,.8.333,1.137,1.137,0,0,0,.81-1.941Zm0.86,7.86a1.138,1.138,0,0,0-1.14-1.137h-3.57a1.137,1.137,0,1,0,0,2.274h3.57A1.138,1.138,0,0,0,1155.85,617.243Zm-0.46,3.51-2.53,2.526a1.144,1.144,0,0,0,0,1.608,1.123,1.123,0,0,0,.8.333,1.145,1.145,0,0,0,.81-0.333l2.52-2.526A1.134,1.134,0,0,0,1155.39,620.753Zm5.85-8.906a1.138,1.138,0,0,0,1.14-1.137v-3.573a1.135,1.135,0,1,0-2.27,0v3.573A1.136,1.136,0,0,0,1161.24,611.847Zm4.32,1.48a1.123,1.123,0,0,0,.8-0.333l2.53-2.526a1.138,1.138,0,0,0-1.61-1.608l-2.53,2.526A1.137,1.137,0,0,0,1165.56,613.327Z" transform="translate(-1150 -606)"/>
</svg>
