<svg xmlns="http://www.w3.org/2000/svg" width="22" height="16" viewBox="0 0 22 16">
  <metadata><?xpacket begin="﻿" id="W5M0MpCehiHzreSzNTczkc9d"?>
<x:xmpmeta xmlns:x="adobe:ns:meta/" x:xmptk="Adobe XMP Core 5.6-c142 79.160924, 2017/07/13-01:06:39        ">
   <rdf:RDF xmlns:rdf="http://www.w3.org/1999/02/22-rdf-syntax-ns#">
      <rdf:Description rdf:about=""/>
   </rdf:RDF>
</x:xmpmeta>
                                                                                                    
                                                                                                    
                                                                                                    
                                                                                                    
                                                                                                    
                                                                                                    
                                                                                                    
                                                                                                    
                                                                                                    
                                                                                                    
                                                                                                    
                                                                                                    
                                                                                                    
                                                                                                    
                                                                                                    
                                                                                                    
                                                                                                    
                                                                                                    
                                                                                                    
                                                                                                    
                           
<?xpacket end="w"?></metadata>
<defs>
    <style>
      .cls-1 {
        fill: #232120;
        fill-rule: evenodd;
      }
    </style>
  </defs>
  <path id="icon_mail" class="cls-1" d="M849.035,377a1.972,1.972,0,0,0,1.287-.45l-6.233-5.769-0.431.287q-0.7.478-1.136,0.745a7.383,7.383,0,0,1-1.16.545,3.771,3.771,0,0,1-1.351.278h-0.024a3.771,3.771,0,0,1-1.351-.278,7.383,7.383,0,0,1-1.16-.545q-0.435-.267-1.135-0.745l-0.431-.289-6.234,5.771a1.972,1.972,0,0,0,1.288.45h18.071Zm-18.8-9.852a6.383,6.383,0,0,1-1.24-.988v8.777l5.494-5.084Q832.844,368.785,830.239,367.146Zm19.533,0q-2.51,1.572-4.264,2.706L851,374.935v-8.777A6.667,6.667,0,0,1,849.772,367.146ZM849.035,361H830.964a1.819,1.819,0,0,0-1.455.591,2.18,2.18,0,0,0-.509,1.478,2.545,2.545,0,0,0,.675,1.55,5.9,5.9,0,0,0,1.436,1.312q0.417,0.273,2.517,1.62c0.755,0.484,1.412.907,1.977,1.271,0.482,0.31.9,0.579,1.239,0.8l0.184,0.121,0.338,0.226q0.4,0.267.663,0.432t0.639,0.369a3.859,3.859,0,0,0,.706.307,2.093,2.093,0,0,0,.613.1h0.025a2.1,2.1,0,0,0,.614-0.1,3.888,3.888,0,0,0,.706-0.307c0.249-.136.462-0.26,0.638-0.369s0.4-.254.663-0.432l0.339-.226,0.183-.121,1.242-.8,4.5-2.895a5.637,5.637,0,0,0,1.5-1.4,2.851,2.851,0,0,0,.6-1.715,1.683,1.683,0,0,0-.583-1.285A1.977,1.977,0,0,0,849.035,361Z" transform="translate(-829 -361)"/>
</svg>
