<svg xmlns="http://www.w3.org/2000/svg" width="27.031" height="19" viewBox="0 0 27.031 19">
  <metadata><?xpacket begin="﻿" id="W5M0MpCehiHzreSzNTczkc9d"?>
<x:xmpmeta xmlns:x="adobe:ns:meta/" x:xmptk="Adobe XMP Core 5.6-c142 79.160924, 2017/07/13-01:06:39        ">
   <rdf:RDF xmlns:rdf="http://www.w3.org/1999/02/22-rdf-syntax-ns#">
      <rdf:Description rdf:about=""/>
   </rdf:RDF>
</x:xmpmeta>
                                                                                                    
                                                                                                    
                                                                                                    
                                                                                                    
                                                                                                    
                                                                                                    
                                                                                                    
                                                                                                    
                                                                                                    
                                                                                                    
                                                                                                    
                                                                                                    
                                                                                                    
                                                                                                    
                                                                                                    
                                                                                                    
                                                                                                    
                                                                                                    
                                                                                                    
                                                                                                    
                           
<?xpacket end="w"?></metadata>
<defs>
    <style>
      .cls-1 {
        fill: #232120;
        fill-rule: evenodd;
      }
    </style>
  </defs>
  <path id="icon_phone" class="cls-1" d="M836.058,351c-2.249,0-4.049-.98-4.531-3.092-0.551-2.418-.818-4.963.418-7.347a4.888,4.888,0,0,1,2.016-1.885,1.939,1.939,0,0,0,1.22-2.162c-0.067-.369.084-0.773,0.031-1.147a1.414,1.414,0,0,0-.447-0.508,1.225,1.225,0,0,0-.362.522c0.183,1.6-.8,2.4-2.116,2.948a13.718,13.718,0,0,1-2.3.733,2.5,2.5,0,0,1-2.086-.476,2.192,2.192,0,0,1,.237-3.688,17.162,17.162,0,0,1,3.163-1.439A26.8,26.8,0,0,1,840.018,332a43.119,43.119,0,0,1,5.4.416,20.249,20.249,0,0,1,6.723,2.023,3.693,3.693,0,0,1,1.49,1.279c1,1.648-.206,3.48-2.251,3.363A6.522,6.522,0,0,1,847.3,337.4a1.96,1.96,0,0,1-.7-1.779,0.69,0.69,0,0,0-.027-0.429,0.774,0.774,0,0,0-.442-0.325,0.578,0.578,0,0,0-.316.356,1.491,1.491,0,0,0,0,.545,3.035,3.035,0,0,1,.057.873c-0.251,1,.314,1.5,1.1,1.965a5.514,5.514,0,0,1,2.524,2.728,18.261,18.261,0,0,1,.033,6.629A4.56,4.56,0,0,1,844.95,351C844.194,350.975,837.511,351,836.058,351Zm4.419-4.944A6.261,6.261,0,0,0,844.9,344.3a2.912,2.912,0,0,0,.337-4.006,4.693,4.693,0,0,0-2.261-1.663,6.476,6.476,0,0,0-6.743,1.129,3.021,3.021,0,0,0-.033,4.634A6.342,6.342,0,0,0,840.477,346.051Zm0.057-11.662v0c-0.772,0-1.544.014-2.315,0a0.566,0.566,0,0,0-.684.654,2.889,2.889,0,0,0,0,.383c0.031,0.185.093,0.366,0.143,0.549a2.709,2.709,0,0,0,.547-0.206,4.807,4.807,0,0,1,4.577.019,2.6,2.6,0,0,0,.545.209c0.049-.2.112-0.4,0.142-0.6a2.366,2.366,0,0,0-.023-0.382,0.593,0.593,0,0,0-.725-0.629C842,334.4,841.269,334.389,840.534,334.389Zm0.265,9.475a3.907,3.907,0,0,1-2.477-.753,1.773,1.773,0,0,1,.013-2.932,3.64,3.64,0,0,1,4.256-.063,1.833,1.833,0,0,1-.29,3.254A8.1,8.1,0,0,1,840.8,343.864Z" transform="translate(-826.969 -332)"/>
</svg>
