<?xml version="1.0" encoding="utf-8"?>
<!-- Generator: Adobe Illustrator 22.1.0, SVG Export Plug-In . SVG Version: 6.00 Build 0)  -->
<svg version="1.1" id="Слой_1" xmlns="http://www.w3.org/2000/svg" xmlns:xlink="http://www.w3.org/1999/xlink" x="0px" y="0px"
	 width="29px" height="29px" viewBox="0 0 29 29" style="enable-background:new 0 0 29 29;" xml:space="preserve">
<path d="M17.3,14.5c0,1.5-1.2,2.8-2.8,2.8s-2.8-1.2-2.8-2.8s1.2-2.8,2.8-2.8S17.3,13,17.3,14.5z"/>
<path d="M21,9.6c-0.1-0.4-0.3-0.7-0.6-1c-0.3-0.3-0.6-0.5-1-0.6c-0.3-0.1-0.7-0.2-1.5-0.3c-0.9,0-1.1,0-3.4,0c-2.2,0-2.5,0-3.4,0
	c-0.8,0-1.3,0.2-1.5,0.3c-0.4,0.1-0.7,0.3-1,0.6C8.4,8.9,8.1,9.2,8,9.6c-0.1,0.3-0.2,0.7-0.3,1.5c0,0.9,0,1.1,0,3.4
	c0,2.2,0,2.5,0,3.4c0,0.8,0.2,1.3,0.3,1.5c0.1,0.4,0.3,0.7,0.6,1c0.3,0.3,0.6,0.5,1,0.6c0.3,0.1,0.7,0.2,1.5,0.3c0.9,0,1.1,0,3.4,0
	c2.2,0,2.5,0,3.4,0c0.8,0,1.3-0.2,1.5-0.3c0.7-0.3,1.3-0.9,1.6-1.6c0.1-0.3,0.2-0.7,0.3-1.5c0-0.9,0-1.1,0-3.4c0-2.2,0-2.5,0-3.4
	C21.2,10.3,21.1,9.9,21,9.6z M14.5,18.8c-2.4,0-4.3-1.9-4.3-4.3s1.9-4.3,4.3-4.3c2.4,0,4.3,1.9,4.3,4.3S16.9,18.8,14.5,18.8z
	 M18.9,11.1c-0.6,0-1-0.4-1-1s0.4-1,1-1s1,0.4,1,1C19.9,10.6,19.5,11.1,18.9,11.1z"/>
<path d="M14.5,0C6.5,0,0,6.5,0,14.5S6.5,29,14.5,29S29,22.5,29,14.5S22.5,0,14.5,0z M22.8,17.9c0,0.9-0.2,1.5-0.4,2
	c-0.4,1.1-1.3,2-2.4,2.4c-0.5,0.2-1.1,0.3-2,0.4c-0.9,0-1.2,0.1-3.4,0.1c-2.3,0-2.5,0-3.4-0.1c-0.9,0-1.5-0.2-2-0.4
	c-0.6-0.2-1.1-0.5-1.5-1c-0.4-0.4-0.8-0.9-1-1.5c-0.2-0.5-0.3-1.1-0.4-2c0-0.9-0.1-1.2-0.1-3.4s0-2.5,0.1-3.4c0-0.9,0.2-1.5,0.4-2
	c0.2-0.6,0.5-1.1,1-1.5C8,7.1,8.5,6.8,9,6.6c0.5-0.2,1.1-0.3,2-0.4c0.9,0,1.2-0.1,3.4-0.1s2.5,0,3.4,0.1c0.9,0,1.5,0.2,2,0.4
	c0.6,0.2,1.1,0.5,1.5,1c0.4,0.4,0.8,0.9,1,1.5c0.2,0.5,0.3,1.1,0.4,2c0,0.9,0.1,1.2,0.1,3.4S22.8,17,22.8,17.9z"/>
</svg>
