<svg 
 xmlns="http://www.w3.org/2000/svg"
 xmlns:xlink="http://www.w3.org/1999/xlink"
 width="29px" height="30px">
<path fill-rule="evenodd"  fill="rgb(201, 8, 50)"
 d="M14.504,29.016 C6.496,29.016 0.004,22.525 0.004,14.516 C0.004,6.508 6.496,0.016 14.504,0.016 C22.512,0.016 29.004,6.508 29.004,14.516 C29.004,22.525 22.512,29.016 14.504,29.016 ZM19.783,9.994 L14.500,9.994 L9.217,9.994 C8.740,9.994 8.656,10.233 9.030,10.526 L13.711,14.197 C13.923,14.363 14.215,14.437 14.500,14.423 C14.783,14.437 15.076,14.364 15.288,14.197 L19.969,10.526 C20.344,10.233 20.259,9.994 19.783,9.994 ZM20.997,11.834 C20.997,11.362 20.687,11.209 20.307,11.495 L15.192,15.340 C15.000,15.482 14.750,15.551 14.500,15.548 C14.250,15.551 13.999,15.482 13.808,15.340 L8.693,11.495 C8.313,11.209 8.002,11.362 8.002,11.834 L8.002,18.143 C8.002,18.615 8.392,19.001 8.868,19.001 L14.500,19.001 L20.131,19.001 C20.607,19.001 20.997,18.615 20.997,18.143 L20.997,11.834 Z"/>
</svg>