<svg 
 xmlns="http://www.w3.org/2000/svg"
 xmlns:xlink="http://www.w3.org/1999/xlink"
 width="29px" height="29px">
<path fill-rule="evenodd"  fill="rgb(183, 184, 186)"
 d="M28.997,14.499 C28.997,6.493 22.506,0.002 14.499,0.002 C6.493,0.002 0.002,6.493 0.002,14.499 C0.002,22.506 6.493,28.997 14.499,28.997 C22.506,28.997 28.997,22.506 28.997,14.499 ZM6.693,19.651 C6.944,19.683 7.199,19.700 7.458,19.700 C8.959,19.702 10.340,19.161 11.435,18.251 C10.033,18.218 8.851,17.227 8.444,15.868 C8.639,15.908 8.840,15.932 9.046,15.933 C9.338,15.935 9.620,15.895 9.889,15.818 C8.424,15.494 7.319,14.104 7.319,12.447 C7.319,12.433 7.319,12.418 7.319,12.404 C7.751,12.665 8.244,12.823 8.770,12.847 C7.912,12.226 7.347,11.171 7.347,9.986 C7.347,9.358 7.505,8.773 7.780,8.272 C9.361,10.361 11.721,11.747 14.382,11.920 C14.327,11.671 14.299,11.412 14.299,11.146 C14.299,9.274 15.733,7.779 17.502,7.808 C18.423,7.824 19.256,8.247 19.840,8.911 C20.570,8.771 21.255,8.503 21.874,8.127 C21.635,8.909 21.126,9.560 20.464,9.967 C21.113,9.895 21.730,9.723 22.304,9.464 C21.875,10.131 21.332,10.715 20.706,11.182 C20.712,11.327 20.715,11.472 20.715,11.617 C20.715,16.064 17.492,21.192 11.601,21.189 C9.794,21.190 8.110,20.624 6.693,19.651 Z"/>
</svg>